<?xml version="1.0" encoding="UTF-8" standalone="no"?>
<svg
   xmlns="http://www.w3.org/2000/svg"
   width="63.007233mm"
   height="51.243511mm"
   viewBox="0 0 63.007233 51.243511"
   version="1.1"
   id="svg3991">
  <g
     id="layer1"
     transform="translate(-90.312773,119.69806)">
    <g
       transform="matrix(0.26458333,0,0,0.26458333,80.43413,-164.368)"
       id="g3964">
      <path
         style="clip-rule:evenodd;fill:#006b2d;fill-rule:evenodd"
         d="m 142.286,340.359 c -0.964,0.493 -1.856,0.959 -2.757,1.411 -1.866,0.939 -3.494,2.244 -5.204,3.42 -0.171,0.119 -0.323,0.332 -0.388,0.531 -0.471,1.456 -0.892,2.929 -1.379,4.379 -0.219,0.649 -0.563,1.257 -0.834,1.891 -0.297,0.698 -0.557,1.414 -0.869,2.104 -0.145,0.319 -0.377,0.599 -0.674,1.057 -0.5,-1.691 -0.82,-3.236 -1.58,-4.62 -0.198,1.189 -0.028,2.327 0.162,3.484 0.205,1.24 0.324,2.498 -0.197,3.743 -0.359,0.855 -0.967,1.251 -1.809,1.309 -0.869,0.059 -1.746,0.042 -2.616,-0.002 -0.314,-0.016 -0.655,-0.149 -0.928,-0.32 -1.19,-0.756 -1.988,-1.724 -1.837,-3.273 0.087,-0.897 -0.004,-1.812 0.031,-2.716 0.025,-0.696 0.121,-1.39 0.181,-2.085 0.009,-0.097 -0.021,-0.197 -0.04,-0.339 -0.836,0.43 -1.635,0.876 -2.464,1.255 -0.942,0.431 -1.866,0.446 -2.608,-0.249 -0.443,-1.402 0.18,-2.49 0.7,-3.607 0.574,-1.237 1.115,-2.49 1.681,-3.732 0.096,-0.21 0.235,-0.403 0.358,-0.602 0.588,-0.954 1.175,-1.91 1.769,-2.861 0.213,-0.338 0.429,-0.674 0.672,-0.99 0.59,-0.766 0.771,-1.671 0.899,-2.59 0.161,-1.154 0.382,-2.308 0.173,-3.644 -0.807,1.512 -1.499,2.943 -2.316,4.3 -0.809,1.343 -1.744,2.608 -2.699,4.02 -0.076,-0.269 -0.15,-0.384 -0.119,-0.446 0.525,-1.071 1.083,-2.126 1.592,-3.205 0.307,-0.65 0.541,-1.338 0.811,-2.007 0.212,-0.525 0.402,-1.063 0.648,-1.57 0.75,-1.552 1.559,-3.073 2.274,-4.64 0.696,-1.524 1.285,-3.1 1.964,-4.634 0.8,-1.806 1.622,-3.601 2.479,-5.38 0.677,-1.402 1.445,-2.761 2.127,-4.16 0.9,-1.849 1.736,-3.729 2.644,-5.574 0.509,-1.035 1.113,-2.022 1.661,-3.039 0.452,-0.84 0.858,-1.704 1.33,-2.531 0.722,-1.265 1.478,-2.509 2.225,-3.756 1.024,-1.705 2.022,-3.428 3.09,-5.104 0.89,-1.399 1.84,-2.76 2.804,-4.108 0.655,-0.917 1.421,-1.758 2.066,-2.681 1.373,-1.967 2.849,-3.837 4.592,-5.493 0.528,-0.503 0.953,-1.118 1.472,-1.634 0.567,-0.564 1.171,-1.096 1.795,-1.598 1.004,-0.81 2.006,-1.632 3.07,-2.358 1.437,-0.983 2.797,-2.101 4.475,-2.695 0.364,-0.129 0.668,-0.42 1.021,-0.59 1.203,-0.579 2.551,-0.771 3.76,-1.262 1.447,-0.588 2.88,-0.487 4.338,-0.521 0.66,-0.016 1.321,-0.003 2.008,-0.137 -0.584,-0.352 -1.188,-0.676 -1.751,-1.059 -1.526,-1.04 -2.884,-2.254 -3.887,-3.829 -0.902,-1.412 -1.647,-2.925 -2.021,-4.533 -0.521,-2.236 -0.853,-4.523 -0.171,-6.822 0.301,-1.014 0.393,-2.104 0.79,-3.071 0.5,-1.22 1.216,-2.351 1.842,-3.519 0.118,-0.219 0.253,-0.43 0.476,-0.805 -1.445,0.605 -2.38,1.591 -3.456,2.567 -0.341,-1.042 0.719,-1.471 0.671,-2.359 -1.976,1.666 -3.116,3.854 -4.377,5.967 -0.089,-1.938 1.012,-3.457 1.741,-5.142 -0.546,0.27 -0.559,0.262 -1.403,1.553 -0.397,0.61 -0.734,1.26 -1.098,1.892 -0.359,0.621 -0.424,1.398 -1.14,1.88 0.073,-0.502 0.085,-1.021 0.231,-1.502 0.53,-1.745 1.067,-3.502 2.013,-5.069 0.666,-1.105 1.528,-2.093 2.279,-3.148 0.729,-1.024 1.753,-1.773 2.811,-2.287 1.353,-0.657 2.438,-1.659 3.725,-2.373 0.06,-0.032 0.116,-0.075 0.179,-0.092 0.893,-0.248 1.775,-0.557 2.684,-0.721 0.847,-0.153 1.721,-0.21 2.583,-0.205 1.031,0.007 2.069,0.07 3.09,0.215 0.545,0.077 1.073,0.348 1.585,0.584 1.309,0.604 2.651,1.07 3.758,2.139 0.941,0.91 1.84,1.833 2.57,2.905 0.385,0.565 0.64,1.221 0.925,1.851 0.345,0.764 0.724,1.501 1.395,2.037 0.286,0.229 0.603,0.422 0.877,0.663 0.661,0.579 1.493,0.842 2.262,1.206 1.768,0.839 3.546,1.669 5.372,2.369 1.544,0.592 3.061,1.241 4.573,1.905 0.485,0.213 0.967,0.432 1.445,0.657 1.278,0.602 2.56,1.198 3.831,1.817 0.412,0.201 0.795,0.466 1.191,0.702 1.305,0.777 2.62,1.542 3.917,2.336 1.153,0.705 2.286,1.443 3.43,2.166 0.418,0.263 0.823,0.552 1.26,0.777 1.079,0.56 1.986,1.342 2.876,2.151 0.255,0.231 0.532,0.44 0.814,0.674 -0.322,0.354 -0.631,0.285 -0.908,0.217 -0.934,-0.231 -1.867,-0.474 -2.793,-0.738 -0.986,-0.283 -1.962,-0.609 -2.949,-0.896 -0.918,-0.265 -1.859,-0.462 -2.766,-0.759 -0.904,-0.295 -1.777,-0.685 -2.669,-1.021 -0.643,-0.244 -1.292,-0.474 -1.941,-0.703 -0.968,-0.345 -1.924,-0.719 -2.878,-1.093 -0.881,-0.346 -1.8,-0.639 -2.752,-0.848 -1.214,-0.266 -2.469,-0.483 -3.623,-1.046 -1.305,-0.637 -2.639,-1.24 -4.011,-1.698 -0.873,-0.292 -1.659,-0.884 -2.646,-0.838 -0.184,0.009 -0.373,-0.132 -0.563,-0.196 -1.301,-0.444 -2.6,-0.785 -4.002,-0.427 -0.637,0.163 -1.318,0.153 -1.98,0.213 -1.656,0.146 -3.313,0.293 -4.973,0.43 -0.231,0.019 -0.502,0.052 -0.696,-0.042 -0.811,-0.391 -1.583,-0.008 -2.361,0.084 -0.429,0.051 -0.649,0.628 -0.513,1.134 0.338,1.251 0.839,2.431 1.582,3.499 0.703,1.009 1.396,2.025 2.123,3.017 1.026,1.398 2.147,2.706 3.517,3.797 1.411,1.124 2.767,2.322 4.169,3.459 0.588,0.476 1.246,0.862 1.854,1.313 2.201,1.639 4.313,3.396 6.119,5.461 0.813,0.93 1.418,2.06 2.021,3.152 0.445,0.806 0.773,1.683 1.081,2.556 0.174,0.492 0.221,1.033 0.293,1.556 0.194,1.415 0.531,2.805 0.527,4.256 -0.004,1.121 0.255,2.241 0.337,3.365 0.097,1.335 0.095,2.67 -0.174,3.995 -0.236,1.171 -0.333,2.372 -0.794,3.491 -0.212,0.514 -0.432,1.023 -0.737,1.516 0.205,-1.443 0.176,-2.836 -0.411,-4.184 0.06,1.554 -0.428,3.026 -0.591,4.532 -0.132,1.209 -0.529,2.334 -0.715,3.517 -0.101,0.648 -0.309,1.311 -0.615,1.891 -0.561,1.056 -0.599,2.345 -1.476,3.256 -0.11,0.115 -0.207,0.29 -0.219,0.445 -0.085,1.188 -0.733,2.185 -1.108,3.271 -0.43,1.251 -0.999,2.454 -1.516,3.675 -0.02,0.047 -0.108,0.064 -0.272,0.156 0.365,-2.258 1.239,-4.384 0.89,-6.845 -0.218,0.343 -0.386,0.54 -0.477,0.767 -0.68,1.692 -1.406,3.367 -2.339,4.937 -0.808,1.356 -1.652,2.692 -2.539,3.997 -0.555,0.817 -1.206,1.572 -1.838,2.334 -0.158,0.193 -0.409,0.309 -0.784,0.58 0.176,-0.958 0.315,-1.721 0.455,-2.483 -1.401,1.669 -2.756,3.317 -4.75,4.65 0.201,-0.501 0.281,-0.857 0.472,-1.142 0.905,-1.349 1.563,-2.824 2.312,-4.259 0.653,-1.252 0.947,-2.628 1.576,-3.878 0.125,-0.249 0.112,-0.568 0.069,-0.897 -1.997,3.314 -4.077,6.545 -6.737,9.376 0.312,-1.455 1.113,-2.722 1.591,-4.111 0.485,-1.412 0.988,-2.819 1.311,-4.276 0.319,-1.45 0.849,-2.864 0.841,-4.391 -1.709,3.932 -3.721,7.675 -6.332,11.074 -0.011,0.016 -0.111,-0.038 -0.222,-0.079 0.372,-0.909 0.743,-1.818 1.138,-2.781 -0.403,-0.104 -0.552,0.22 -0.735,0.403 -1.52,1.512 -2.983,3.08 -4.551,4.539 -1.087,1.009 -2.298,1.89 -3.482,2.787 -0.45,0.333 -19.765,10.333 -23.286,10.305 z"
         id="path3958" />
      <g
         id="g3962">
        <path
           style="fill:#010202"
           d="m 104.326,297.89 c -0.264,4.341 5.261,16.44 8.287,19.664 1.977,2.106 4.594,7.128 6.155,10.983 0.087,-0.185 0.183,-0.363 0.268,-0.549 0.356,-0.781 0.683,-1.578 1.011,-2.375 0.304,-0.74 0.608,-1.48 0.932,-2.212 0.879,-1.987 1.709,-3.788 2.537,-5.505 0.37,-0.768 0.763,-1.519 1.157,-2.271 0.332,-0.632 0.665,-1.264 0.977,-1.905 0.42,-0.861 0.824,-1.729 1.229,-2.596 0.468,-1.001 0.936,-2.002 1.422,-2.993 0.355,-0.722 0.75,-1.425 1.147,-2.127 0.198,-0.351 0.396,-0.701 0.588,-1.056 0.166,-0.31 0.328,-0.626 0.489,-0.944 0.288,-0.563 0.577,-1.125 0.891,-1.676 0.612,-1.074 1.251,-2.135 1.887,-3.195 l 1.196,-2.001 c 0.767,-1.288 1.533,-2.577 2.337,-3.841 0.985,-1.549 2.035,-3.041 2.932,-4.298 0.362,-0.506 0.751,-0.994 1.142,-1.479 0.309,-0.384 0.62,-0.767 0.901,-1.169 1.429,-2.043 2.774,-3.7 4.16,-5.142 -5.558,-2.145 -5.533,-12.718 -9.04,-20.699 -3.482,-7.929 -7.643,-10.649 -10.951,-13.145 -3.309,-2.493 -4.537,-3.601 -6.066,-4.833 -1.528,-1.234 -5.327,-3.946 -5.968,-3.897 -0.643,0.05 -0.643,1.331 -0.986,1.529 -0.345,0.198 -1.53,-1.382 -2.122,-1.874 -0.593,-0.493 -1.677,-1.282 -2.022,-0.493 -0.345,0.789 2.367,6.905 1.974,7.646 -0.396,0.74 -0.888,0.74 -3.65,1.528 -2.763,0.79 -6.808,5.229 -7.893,6.66 -1.084,1.431 -2.072,6.018 -2.664,7.004 -0.59,0.986 -1.924,2.417 -2.466,2.96 -0.542,0.542 -0.986,1.528 -1.035,2.564 -0.05,1.036 0.493,1.775 0.937,2.12 0.443,0.347 0.05,1.234 0.494,2.022 0.443,0.79 1.084,1.234 1.48,1.53 0.393,0.295 -0.249,0.986 1.133,2.565 1.381,1.577 7.531,1.857 9.174,3.568 1.646,1.709 1.316,5.92 1.251,8.221 -0.07,2.303 -2.963,7.369 -3.225,11.711 z"
           id="path3960" />
      </g>
    </g>
    <g
       id="g4103"
       transform="matrix(0.92466825,0,0,0.92466825,9.52461,-9.2769891)">
      <path
         id="path159"
         d="m 88.343212,-115.18264 h 6.584421 v 1.73831 H 90.52232 v 1.55972 h 3.976688 v 1.7264 l -3.976688,0.0122 v 1.57136 h 4.524375 v 1.73832 h -6.703218 v -8.34628 z"
         style="fill:#006b2d;stroke-width:0.26458332" />
      <path
         id="path161"
         d="m 104.42908,-106.83636 h -2.6072 l -2.19075,-3.2385 -1.04775,1.16681 v 2.07169 h -2.178843 v -8.34655 h 2.178843 v 3.6195 l 3.13134,-3.6195 h 2.52413 l -3.09563,3.44117 z"
         style="fill:#006b2d;stroke-width:0.26458332"/>
      <path
         id="path163"
         d="m 111.38974,-114.75375 c 0.68633,0.37306 1.22635,0.88503 1.61925,1.5359 0.39264,0.65088 0.58923,1.38113 0.58923,2.19049 0,0.81782 -0.19632,1.55575 -0.58923,2.21456 -0.3929,0.65881 -0.93292,1.17872 -1.61925,1.55972 -0.68686,0.38126 -1.45468,0.5715 -2.30399,0.5715 -0.84931,0 -1.6174,-0.18839 -2.30373,-0.56542 -0.68685,-0.37703 -1.2266,-0.8972 -1.61925,-1.55972 -0.3929,-0.66304 -0.58949,-1.40308 -0.58949,-2.22091 0,-0.80962 0.19632,-1.53961 0.58949,-2.19048 0.39265,-0.65088 0.9324,-1.16285 1.61925,-1.53591 0.68633,-0.37306 1.45442,-0.55959 2.30373,-0.55959 0.84931,0 1.61713,0.18653 2.30399,0.55986 z m -3.429,1.60707 c -0.35348,0.21458 -0.63341,0.51012 -0.83952,0.88715 -0.20638,0.37703 -0.30956,0.7919 -0.30956,1.24407 0,0.46038 0.10504,0.87921 0.31538,1.25624 0.21034,0.37704 0.49001,0.67469 0.83952,0.89297 0.34899,0.21828 0.73025,0.32729 1.14274,0.32729 0.41248,0 0.7919,-0.10901 1.13718,-0.32729 0.34528,-0.21828 0.61701,-0.51593 0.81544,-0.89297 0.19844,-0.37703 0.29766,-0.79586 0.29766,-1.25624 0,-0.45217 -0.0992,-0.86704 -0.29766,-1.24407 -0.19843,-0.37703 -0.47016,-0.67257 -0.81544,-0.88715 -0.34528,-0.21457 -0.72443,-0.32146 -1.13718,-0.32146 -0.41275,0 -0.7956,0.10689 -1.14856,0.32146 z"
         style="fill:#006b2d;stroke-width:0.26458332"
          />
      <path
         id="path165"
         d="m 119.03461,-113.31336 c -0.50429,-0.16669 -0.9271,-0.24977 -1.26814,-0.24977 -0.27014,0 -0.48208,0.0497 -0.63686,0.14896 -0.15478,0.0992 -0.2323,0.24395 -0.2323,0.43445 0,0.18256 0.0675,0.33575 0.20267,0.45852 0.13494,0.12303 0.30162,0.22225 0.50006,0.29766 0.19818,0.0754 0.49186,0.1725 0.88106,0.29157 0.57918,0.16695 1.05754,0.33337 1.43457,0.50032 0.37704,0.16643 0.70036,0.42281 0.9705,0.76782 0.26987,0.34529 0.40481,0.79587 0.40481,1.35123 0,0.55589 -0.14711,1.03002 -0.44053,1.42293 -0.29369,0.39264 -0.69665,0.68871 -1.20835,0.88688 -0.51224,0.19844 -1.08162,0.29766 -1.70868,0.29766 -0.69057,0 -1.37928,-0.12091 -2.06587,-0.36301 -0.68659,-0.24209 -1.27979,-0.57335 -1.78012,-0.99404 l 0.84535,-1.70286 c 0.42069,0.37307 0.91863,0.6784 1.4941,0.91679 0.57547,0.23812 1.08532,0.35718 1.52982,0.35718 0.32544,0 0.58129,-0.0595 0.76782,-0.17859 0.18653,-0.11906 0.27993,-0.29342 0.27993,-0.52361 0,-0.19077 -0.0696,-0.34925 -0.20823,-0.47652 -0.1389,-0.12673 -0.31379,-0.2278 -0.52387,-0.30321 -0.21008,-0.0754 -0.50588,-0.16483 -0.88715,-0.26829 -0.57123,-0.15875 -1.04352,-0.31908 -1.41658,-0.4818 -0.37306,-0.16272 -0.69268,-0.40878 -0.95858,-0.73845 -0.26591,-0.32915 -0.39873,-0.76783 -0.39873,-1.31578 0,-0.51567 0.13705,-0.96811 0.4109,-1.35705 0.27358,-0.3892 0.66251,-0.68897 1.16654,-0.89905 0.50404,-0.21008 1.08956,-0.31512 1.75631,-0.31512 0.60298,0 1.1983,0.0852 1.78594,0.25585 0.58737,0.17092 1.10331,0.399 1.54807,0.68475 l -0.82153,1.73831 c -0.44503,-0.26273 -0.91916,-0.47705 -1.42293,-0.64373 z"
         style="fill:#006b2d;stroke-width:0.26458332" />
      <path
         id="path167"
         d="m 121.69632,-115.18264 h 7.15566 v 1.79784 h -2.50032 v 6.5487 h -2.17884 v -6.5487 h -2.47623 v -1.79784 z"
         style="fill:#006b2d;stroke-width:0.26458332"
          />
      <path
         id="path169"
         d="m 134.77018,-106.83636 -1.21444,-2.30982 h -0.0476 -1.57163 v 2.30982 h -2.17884 v -8.34655 h 3.75073 c 1.10305,0 1.95845,0.25612 2.56567,0.76782 0.60722,0.51224 0.91069,1.23243 0.91069,2.16112 0,0.62706 -0.127,1.16893 -0.381,1.62533 -0.254,0.45667 -0.62309,0.81148 -1.10728,1.06548 l 1.73832,2.7268 z m -2.83369,-4.04786 h 1.58353 c 0.4445,0 0.78767,-0.11113 1.03002,-0.33364 0.24183,-0.22199 0.36301,-0.54372 0.36301,-0.96467 0,-0.40455 -0.12118,-0.71623 -0.36301,-0.93425 -0.24235,-0.21854 -0.58552,-0.32755 -1.03002,-0.32755 h -1.58353 z"
         style="fill:#006b2d;stroke-width:0.26458332"
          />
      <path
         id="path171"
         d="m 144.53462,-106.83636 -0.5715,-1.47638 h -3.60759 l -0.58341,1.47638 h -2.23837 l 3.58378,-8.34655 h 2.23838 l 3.50017,8.34655 z m -3.52451,-3.14325 h 2.30955 l -1.14274,-2.9763 z"
         style="fill:#006b2d;stroke-width:0.26458332"
          />
      <polygon
         id="polygon173"
         points="488.135,298.754 471.485,318.284 488.405,318.284 488.405,324.899 460.46,324.899 460.46,319.544 477.11,299.969 461.045,299.969 461.045,293.354 488.135,293.354 "
         style="fill:#006b2d"
         transform="matrix(0.26458333,0,0,0.26458333,25.313112,-192.79922)" />
      <circle
         r="1.15"
         style="fill:#006b2d;fill-opacity:1;stroke-width:0.23868227"
         cy="-117.29364"
         cx="150.89005"
         id="path4092" />
    </g>
  </g>
</svg>
