<?xml version="1.0" encoding="utf-8"?>
<!-- Generator: Adobe Illustrator 16.0.3, SVG Export Plug-In . SVG Version: 6.00 Build 0)  -->
<!DOCTYPE svg PUBLIC "-//W3C//DTD SVG 1.1//EN" "http://www.w3.org/Graphics/SVG/1.1/DTD/svg11.dtd">
<svg version="1.1" id="Layer_1" xmlns="http://www.w3.org/2000/svg" xmlns:xlink="http://www.w3.org/1999/xlink" x="0px" y="0px"
	 width="595.28px" height="595.28px" viewBox="0 0 595.28 595.28" enable-background="new 0 0 595.28 595.28" xml:space="preserve">
<g>
	<path fill="#006B2D" d="M238.224,293.354h24.886v6.57h-16.65v5.895h15.03v6.525l-15.03,0.046v5.939h17.1v6.57h-25.335V293.354z"/>
	<path fill="#006B2D" d="M299.021,324.899h-9.854l-8.28-12.24l-3.96,4.41v7.83h-8.235v-31.546h8.235v13.68l11.835-13.68h9.54
		l-11.7,13.006L299.021,324.899z"/>
	<path fill="#006B2D" d="M325.329,294.975c2.594,1.41,4.635,3.345,6.12,5.805c1.484,2.46,2.227,5.22,2.227,8.279
		c0,3.091-0.742,5.88-2.227,8.37c-1.485,2.49-3.526,4.455-6.12,5.895c-2.596,1.441-5.498,2.16-8.708,2.16s-6.113-0.712-8.707-2.137
		c-2.596-1.425-4.636-3.391-6.12-5.895c-1.485-2.506-2.228-5.303-2.228-8.394c0-3.06,0.742-5.819,2.228-8.279
		c1.484-2.46,3.524-4.395,6.12-5.805c2.594-1.41,5.497-2.115,8.707-2.115S322.733,293.564,325.329,294.975z M312.369,301.049
		c-1.336,0.811-2.394,1.928-3.173,3.353c-0.78,1.425-1.17,2.993-1.17,4.702c0,1.74,0.397,3.323,1.192,4.748s1.852,2.55,3.173,3.375
		c1.319,0.825,2.76,1.237,4.319,1.237s2.993-0.412,4.298-1.237s2.332-1.95,3.082-3.375s1.125-3.008,1.125-4.748
		c0-1.709-0.375-3.277-1.125-4.702s-1.777-2.542-3.082-3.353s-2.738-1.215-4.298-1.215S313.703,300.238,312.369,301.049z"/>
	<path fill="#006B2D" d="M354.223,300.419c-1.906-0.63-3.504-0.944-4.793-0.944c-1.021,0-1.822,0.188-2.407,0.563
		s-0.878,0.922-0.878,1.642c0,0.69,0.255,1.269,0.766,1.733c0.51,0.465,1.14,0.84,1.89,1.125c0.749,0.285,1.859,0.652,3.33,1.102
		c2.189,0.631,3.997,1.26,5.422,1.891c1.425,0.629,2.647,1.598,3.668,2.902c1.02,1.305,1.53,3.008,1.53,5.107
		c0,2.101-0.556,3.893-1.665,5.378c-1.11,1.484-2.633,2.603-4.567,3.352c-1.936,0.75-4.088,1.125-6.458,1.125
		c-2.61,0-5.213-0.457-7.808-1.372s-4.837-2.167-6.728-3.757l3.195-6.436c1.59,1.41,3.472,2.564,5.647,3.465
		c2.175,0.9,4.102,1.35,5.782,1.35c1.23,0,2.197-0.225,2.902-0.675s1.058-1.109,1.058-1.979c0-0.721-0.263-1.32-0.787-1.801
		c-0.525-0.479-1.186-0.861-1.98-1.146s-1.912-0.623-3.353-1.014c-2.159-0.6-3.944-1.206-5.354-1.821s-2.618-1.545-3.623-2.791
		c-1.005-1.244-1.507-2.902-1.507-4.973c0-1.949,0.518-3.659,1.553-5.129c1.034-1.471,2.504-2.604,4.409-3.398
		c1.905-0.794,4.118-1.191,6.638-1.191c2.279,0,4.529,0.322,6.75,0.967c2.22,0.646,4.17,1.508,5.851,2.588l-3.105,6.57
		C357.919,301.859,356.127,301.049,354.223,300.419z"/>
	<path fill="#006B2D" d="M364.283,293.354h27.045v6.795h-9.45v24.751h-8.235v-24.751h-9.359V293.354z"/>
	<path fill="#006B2D" d="M413.696,324.899l-4.59-8.73h-0.18h-5.94v8.73h-8.235v-31.546h14.176c4.169,0,7.402,0.968,9.697,2.902
		c2.295,1.936,3.442,4.658,3.442,8.168c0,2.37-0.48,4.418-1.44,6.143c-0.96,1.726-2.355,3.067-4.185,4.027l6.57,10.306H413.696z
		 M402.986,309.6h5.985c1.68,0,2.977-0.42,3.893-1.261c0.914-0.839,1.372-2.055,1.372-3.646c0-1.529-0.458-2.707-1.372-3.531
		c-0.916-0.826-2.213-1.238-3.893-1.238h-5.985V309.6z"/>
	<path fill="#006B2D" d="M450.601,324.899l-2.16-5.58h-13.635l-2.205,5.58h-8.46l13.545-31.546h8.46l13.229,31.546H450.601z
		 M437.28,313.019h8.729l-4.319-11.249L437.28,313.019z"/>
	<polygon fill="#006B2D" points="461.045,293.354 488.135,293.354 488.135,298.754 471.485,318.284 488.405,318.284 
		488.405,324.899 460.46,324.899 460.46,319.544 477.11,299.969 461.045,299.969 	"/>
	<g>
		<path d="M244.456,242.879c-0.782-0.223-1.518-0.334-2.208-0.334c-1.104,0-1.989,0.219-2.656,0.656s-1.001,1.031-1.001,1.782
			c0,0.659,0.185,1.196,0.552,1.61c0.368,0.414,0.82,0.74,1.357,0.978c0.536,0.237,1.272,0.502,2.208,0.794
			c1.089,0.321,1.967,0.64,2.634,0.953c0.667,0.314,1.233,0.771,1.702,1.369c0.467,0.598,0.701,1.389,0.701,2.369
			c0,0.859-0.241,1.617-0.725,2.277c-0.483,0.659-1.161,1.169-2.035,1.529s-1.879,0.541-3.014,0.541
			c-1.119,0-2.212-0.223-3.277-0.668c-1.065-0.444-1.981-1.035-2.748-1.771l0.735-1.311c0.721,0.705,1.557,1.258,2.508,1.656
			c0.95,0.398,1.886,0.598,2.806,0.598c1.227,0,2.2-0.248,2.921-0.747c0.721-0.498,1.081-1.169,1.081-2.013
			c0-0.674-0.184-1.227-0.552-1.656c-0.368-0.429-0.82-0.759-1.357-0.988c-0.537-0.23-1.288-0.498-2.254-0.805
			c-1.089-0.338-1.963-0.656-2.622-0.955s-1.219-0.744-1.679-1.334s-0.69-1.361-0.69-2.312c0-0.813,0.23-1.525,0.69-2.14
			c0.46-0.612,1.104-1.084,1.932-1.414s1.786-0.494,2.875-0.494c0.874,0,1.752,0.131,2.634,0.391
			c0.882,0.262,1.659,0.605,2.334,1.035l-0.689,1.357C245.959,243.42,245.238,243.102,244.456,242.879z"/>
		<path d="M252.584,241.188h12.213v1.449h-5.313v14.651h-1.587v-14.651h-5.313V241.188z"/>
		<path d="M280.757,242.166c1.28,0.729,2.297,1.713,3.048,2.955s1.127,2.607,1.127,4.094c0,1.488-0.376,2.861-1.127,4.117
			c-0.751,1.258-1.768,2.254-3.048,2.99s-2.687,1.104-4.22,1.104c-1.534,0-2.94-0.368-4.221-1.104s-2.297-1.732-3.048-2.99
			c-0.751-1.256-1.127-2.629-1.127-4.117c0-1.486,0.376-2.852,1.127-4.094s1.768-2.227,3.048-2.955s2.687-1.092,4.221-1.092
			C278.07,241.074,279.477,241.438,280.757,242.166z M273.156,243.396c-1.043,0.598-1.871,1.411-2.484,2.438
			c-0.613,1.027-0.92,2.155-0.92,3.381c0,1.228,0.307,2.362,0.92,3.404c0.613,1.043,1.441,1.867,2.484,2.473
			c1.042,0.605,2.177,0.908,3.403,0.908c1.211,0,2.335-0.303,3.37-0.908c1.034-0.605,1.858-1.43,2.472-2.473
			c0.613-1.042,0.921-2.177,0.921-3.404c0-1.226-0.308-2.354-0.921-3.381c-0.613-1.026-1.438-1.84-2.472-2.438
			c-1.035-0.598-2.159-0.896-3.37-0.896C275.333,242.5,274.198,242.799,273.156,243.396z"/>
		<path d="M310.631,241.188h1.679l-5.45,16.101h-1.656l-4.531-14.1l-4.577,14.1h-1.633l-5.428-16.101h1.725l4.577,14.421
			l4.554-14.421h1.61l4.577,14.421L310.631,241.188z"/>
		<path d="M329.133,257.289l-1.909-4.278H318.3l-1.886,4.278h-1.702l7.245-16.078h1.655l7.245,16.078H329.133z M318.921,251.584
			h7.682l-3.864-8.693L318.921,251.584z"/>
		<path d="M347.289,257.289l-3.473-5.244c-0.491,0.031-0.866,0.045-1.127,0.045h-4.416v5.199h-1.587v-16.078h6.003
			c2.009,0,3.561,0.465,4.657,1.393c1.096,0.928,1.645,2.242,1.645,3.943c0,1.334-0.322,2.447-0.966,3.336
			c-0.645,0.889-1.564,1.51-2.76,1.863l3.863,5.543H347.289z M342.689,250.664c1.533,0,2.714-0.348,3.542-1.046
			s1.242-1.706,1.242-3.024c0-1.288-0.414-2.27-1.242-2.944s-2.009-1.012-3.542-1.012h-4.416v8.026H342.689z"/>
		<path d="M355.303,241.211h12.673v1.22l-10.901,13.433h10.993v1.426h-13.063v-1.242l10.925-13.409h-10.626V241.211z"/>
		<path d="M386.454,241.211l-6.187,10.351v5.728h-1.588v-5.728l-6.278-10.351h1.656l5.428,8.648l5.313-8.648H386.454z"/>
		<path d="M399.066,242.879c-0.782-0.223-1.518-0.334-2.208-0.334c-1.104,0-1.989,0.219-2.656,0.656s-1.001,1.031-1.001,1.782
			c0,0.659,0.185,1.196,0.552,1.61c0.368,0.414,0.82,0.74,1.357,0.978c0.536,0.237,1.272,0.502,2.208,0.794
			c1.089,0.321,1.967,0.64,2.634,0.953c0.667,0.314,1.233,0.771,1.702,1.369c0.467,0.598,0.701,1.389,0.701,2.369
			c0,0.859-0.241,1.617-0.725,2.277c-0.483,0.659-1.161,1.169-2.035,1.529s-1.879,0.541-3.014,0.541
			c-1.119,0-2.212-0.223-3.277-0.668c-1.065-0.444-1.981-1.035-2.748-1.771l0.735-1.311c0.721,0.705,1.557,1.258,2.508,1.656
			c0.95,0.398,1.886,0.598,2.806,0.598c1.227,0,2.2-0.248,2.921-0.747c0.721-0.498,1.081-1.169,1.081-2.013
			c0-0.674-0.184-1.227-0.552-1.656c-0.368-0.429-0.82-0.759-1.357-0.988c-0.537-0.23-1.288-0.498-2.254-0.805
			c-1.089-0.338-1.963-0.656-2.622-0.955s-1.219-0.744-1.679-1.334s-0.69-1.361-0.69-2.312c0-0.813,0.23-1.525,0.69-2.14
			c0.46-0.612,1.104-1.084,1.932-1.414s1.786-0.494,2.875-0.494c0.874,0,1.752,0.131,2.634,0.391
			c0.882,0.262,1.659,0.605,2.334,1.035l-0.689,1.357C400.569,243.42,399.849,243.102,399.066,242.879z"/>
		<path d="M408.275,241.211h12.673v1.22l-10.901,13.433h10.993v1.426h-13.063v-1.242l10.925-13.409h-10.626V241.211z"/>
		<path d="M427.789,241.211h10.764v1.427h-9.177v5.75h8.211v1.426h-8.211v6.05h9.476v1.426h-11.063V241.211z"/>
		<path d="M457.584,241.211h1.563v16.078h-1.679l-9.959-13.617v13.617h-1.587v-16.078h1.679l9.982,13.617V241.211z"/>
		<path d="M467.414,241.211h1.587v16.078h-1.587V241.211z"/>
		<path d="M477.244,241.211h10.764v1.427h-9.177v5.75h8.211v1.426h-8.211v6.05h9.476v1.426h-11.063V241.211z"/>
		<path d="M248.745,266.166c1.28,0.729,2.297,1.713,3.048,2.955s1.127,2.607,1.127,4.094c0,1.488-0.376,2.861-1.127,4.117
			c-0.751,1.258-1.768,2.254-3.048,2.99s-2.687,1.104-4.22,1.104c-1.534,0-2.94-0.368-4.221-1.104s-2.297-1.732-3.048-2.99
			c-0.751-1.256-1.127-2.629-1.127-4.117c0-1.486,0.376-2.852,1.127-4.094s1.768-2.227,3.048-2.955s2.687-1.092,4.221-1.092
			C246.059,265.074,247.465,265.438,248.745,266.166z M241.145,267.396c-1.043,0.598-1.871,1.411-2.484,2.438
			c-0.613,1.027-0.92,2.155-0.92,3.381c0,1.228,0.307,2.362,0.92,3.404c0.613,1.043,1.441,1.867,2.484,2.473
			c1.042,0.605,2.177,0.908,3.403,0.908c1.211,0,2.335-0.303,3.37-0.908c1.034-0.605,1.858-1.43,2.472-2.473
			c0.613-1.042,0.921-2.177,0.921-3.404c0-1.226-0.308-2.354-0.921-3.381c-0.613-1.026-1.438-1.84-2.472-2.438
			c-1.035-0.598-2.159-0.896-3.37-0.896C243.321,266.5,242.187,266.799,241.145,267.396z"/>
		<path d="M265.547,267.006c-0.844-0.354-1.718-0.529-2.622-0.529c-1.242,0-2.381,0.299-3.416,0.896
			c-1.035,0.599-1.855,1.415-2.461,2.45c-0.605,1.034-0.908,2.166-0.908,3.392c0,1.228,0.303,2.354,0.908,3.382
			s1.426,1.844,2.461,2.449c1.035,0.606,2.174,0.909,3.416,0.909c0.889,0,1.755-0.173,2.599-0.518
			c0.843-0.346,1.595-0.824,2.254-1.438l0.966,1.035c-0.797,0.735-1.71,1.318-2.736,1.748c-1.027,0.429-2.078,0.644-3.151,0.644
			c-1.518,0-2.913-0.368-4.186-1.104c-1.273-0.736-2.281-1.732-3.025-2.99c-0.743-1.256-1.115-2.629-1.115-4.117
			c0-1.486,0.376-2.852,1.127-4.094s1.768-2.227,3.048-2.955s2.68-1.092,4.197-1.092c1.089,0,2.139,0.203,3.151,0.609
			c1.012,0.406,1.9,0.969,2.668,1.689l-0.943,1.104C267.134,267.85,266.39,267.358,265.547,267.006z"/>
		<path d="M272.217,265.211h1.587v7.361h10.051v-7.361h1.587v16.078h-1.587v-7.291h-10.051v7.291h-1.587V265.211z"/>
		<path d="M301.104,281.289l-3.473-5.244c-0.491,0.031-0.866,0.045-1.127,0.045h-4.416v5.199h-1.587v-16.078h6.003
			c2.009,0,3.561,0.465,4.657,1.393c1.096,0.928,1.645,2.242,1.645,3.943c0,1.334-0.322,2.447-0.966,3.336
			c-0.645,0.889-1.564,1.51-2.76,1.863l3.863,5.543H301.104z M296.505,274.664c1.533,0,2.714-0.348,3.542-1.046
			s1.242-1.706,1.242-3.024c0-1.288-0.414-2.27-1.242-2.944s-2.009-1.012-3.542-1.012h-4.416v8.026H296.505z"/>
		<path d="M318.182,266.166c1.28,0.729,2.297,1.713,3.048,2.955s1.127,2.607,1.127,4.094c0,1.488-0.376,2.861-1.127,4.117
			c-0.751,1.258-1.768,2.254-3.048,2.99s-2.687,1.104-4.22,1.104c-1.534,0-2.94-0.368-4.221-1.104s-2.297-1.732-3.048-2.99
			c-0.751-1.256-1.127-2.629-1.127-4.117c0-1.486,0.376-2.852,1.127-4.094s1.768-2.227,3.048-2.955s2.687-1.092,4.221-1.092
			C315.495,265.074,316.901,265.438,318.182,266.166z M310.581,267.396c-1.043,0.598-1.871,1.411-2.484,2.438
			c-0.613,1.027-0.92,2.155-0.92,3.381c0,1.228,0.307,2.362,0.92,3.404c0.613,1.043,1.441,1.867,2.484,2.473
			c1.042,0.605,2.177,0.908,3.403,0.908c1.211,0,2.335-0.303,3.37-0.908c1.034-0.605,1.858-1.43,2.472-2.473
			c0.613-1.042,0.921-2.177,0.921-3.404c0-1.226-0.308-2.354-0.921-3.381c-0.613-1.026-1.438-1.84-2.472-2.438
			c-1.035-0.598-2.159-0.896-3.37-0.896C312.758,266.5,311.623,266.799,310.581,267.396z"/>
		<path d="M337.514,265.211h1.563v16.078h-1.679l-9.959-13.617v13.617h-1.587v-16.078h1.679l9.982,13.617V265.211z"/>
		<path d="M355.798,265.211l-6.187,10.351v5.728h-1.588v-5.728l-6.278-10.351h1.656l5.428,8.648l5.313-8.648H355.798z"/>
		<path d="M371.33,265.211h12.673v1.22l-10.901,13.433h10.993v1.426h-13.063v-1.242l10.925-13.409H371.33V265.211z"/>
		<path d="M406.888,265.188h1.679l-5.45,16.101h-1.656l-4.531-14.1l-4.577,14.1h-1.633l-5.428-16.101h1.725l4.577,14.421
			l4.554-14.421h1.61l4.577,14.421L406.888,265.188z"/>
		<path d="M411.235,265.211h1.587v16.078h-1.587V265.211z"/>
		<path d="M417.882,265.211h10.764v1.427h-9.177v5.75h8.211v1.426h-8.211v6.05h9.476v1.426h-11.063V265.211z"/>
		<path d="M443.435,281.289l-3.473-5.244c-0.491,0.031-0.866,0.045-1.127,0.045h-4.416v5.199h-1.587v-16.078h6.003
			c2.009,0,3.561,0.465,4.657,1.393c1.096,0.928,1.645,2.242,1.645,3.943c0,1.334-0.322,2.447-0.966,3.336
			c-0.645,0.889-1.564,1.51-2.76,1.863l3.863,5.543H443.435z M438.835,274.664c1.533,0,2.714-0.348,3.542-1.046
			s1.242-1.706,1.242-3.024c0-1.288-0.414-2.27-1.242-2.944s-2.009-1.012-3.542-1.012h-4.416v8.026H438.835z"/>
		<path d="M448.265,265.211h12.673v1.22l-10.901,13.433h10.993v1.426h-13.063v-1.242l10.925-13.409h-10.626V265.211z"/>
		<path d="M477.889,284.715l0.414,1.035c-0.553,0.322-1.143,0.483-1.771,0.483s-1.127-0.165-1.495-0.494
			c-0.368-0.33-0.552-0.794-0.552-1.392c0-1.089,0.697-2.131,2.093-3.128l-1.886-4.209h-8.924l-1.886,4.278h-1.702l7.245-16.078
			h1.655l7.245,16.078c-0.843,0.598-1.453,1.107-1.828,1.529c-0.376,0.422-0.563,0.847-0.563,1.276c0,0.321,0.08,0.56,0.241,0.713
			s0.38,0.229,0.655,0.229C477.183,285.037,477.535,284.93,477.889,284.715z M466.389,275.584h7.682l-3.864-8.693L466.389,275.584z"
			/>
		<path d="M477.199,265.188h12.213v1.449H484.1v14.651h-1.587v-14.651h-5.313V265.188z"/>
	</g>
	<path fill="#006B2D" d="M476.531,287.733c-1.006,0-1.846-0.295-2.496-0.876c-0.479-0.432-1.051-1.215-1.051-2.51
		c0-0.627,0.146-1.232,0.427-1.816c-0.711,0.18-1.337,0.514-1.858,1.035c-0.795,0.795-1.192,1.822-1.192,3.082
		c0,1.23,0.397,2.25,1.192,3.061c0.794,0.811,1.807,1.215,3.037,1.215c1.2,0,2.197-0.404,2.993-1.215
		c0.667-0.682,1.038-1.52,1.145-2.497C478.037,287.551,477.303,287.733,476.531,287.733z"/>
	<g>
		<path d="M252.191,336.971h1.314l-4.266,12.6h-1.297l-3.545-11.033l-3.582,11.033h-1.279l-4.248-12.6h1.35l3.582,11.286
			l3.564-11.286h1.26l3.582,11.286L252.191,336.971z"/>
		<path d="M289.857,349.57l-2.719-4.104c-0.385,0.024-0.678,0.036-0.883,0.036h-3.455v4.067h-1.242v-12.582h4.697
			c1.572,0,2.787,0.363,3.646,1.09c0.857,0.727,1.287,1.755,1.287,3.087c0,1.044-0.252,1.914-0.758,2.61
			c-0.504,0.695-1.223,1.182-2.158,1.457l3.023,4.338H289.857z M286.256,344.387c1.201,0,2.125-0.273,2.773-0.818
			c0.646-0.547,0.971-1.336,0.971-2.367c0-1.008-0.324-1.776-0.971-2.305c-0.648-0.527-1.572-0.791-2.773-0.791h-3.455v6.281
			H286.256z"/>
		<path d="M329.186,337.736c1.002,0.569,1.797,1.34,2.385,2.313s0.883,2.04,0.883,3.204s-0.295,2.238-0.883,3.222
			c-0.588,0.984-1.383,1.764-2.385,2.34s-2.104,0.864-3.303,0.864s-2.301-0.288-3.303-0.864s-1.797-1.355-2.385-2.34
			c-0.588-0.983-0.883-2.058-0.883-3.222s0.295-2.231,0.883-3.204s1.383-1.743,2.385-2.313c1.002-0.57,2.104-0.855,3.303-0.855
			S328.184,337.166,329.186,337.736z M323.236,338.699c-0.814,0.468-1.463,1.104-1.943,1.908c-0.48,0.804-0.721,1.686-0.721,2.646
			s0.24,1.849,0.721,2.664s1.129,1.461,1.943,1.935c0.816,0.475,1.705,0.711,2.664,0.711c0.949,0,1.828-0.236,2.639-0.711
			c0.809-0.474,1.453-1.119,1.934-1.935s0.721-1.704,0.721-2.664s-0.24-1.842-0.721-2.646c-0.48-0.805-1.125-1.44-1.934-1.908
			c-0.811-0.469-1.689-0.703-2.639-0.703C324.941,337.996,324.053,338.23,323.236,338.699z"/>
		<path d="M368.301,338.393c-0.66-0.275-1.344-0.414-2.053-0.414c-0.973,0-1.863,0.234-2.672,0.702
			c-0.811,0.468-1.453,1.106-1.928,1.917c-0.473,0.811-0.711,1.695-0.711,2.655s0.238,1.843,0.711,2.646
			c0.475,0.805,1.117,1.443,1.928,1.918c0.809,0.474,1.699,0.711,2.672,0.711c0.695,0,1.375-0.136,2.035-0.406
			c0.658-0.27,1.246-0.645,1.764-1.125l0.756,0.811c-0.625,0.576-1.338,1.032-2.143,1.368s-1.627,0.504-2.465,0.504
			c-1.189,0-2.281-0.288-3.277-0.864s-1.785-1.355-2.367-2.34c-0.582-0.983-0.873-2.058-0.873-3.222s0.295-2.231,0.883-3.204
			s1.383-1.743,2.385-2.313c1.002-0.57,2.098-0.855,3.285-0.855c0.852,0,1.674,0.159,2.467,0.477
			c0.791,0.318,1.486,0.76,2.088,1.323l-0.738,0.864C369.543,339.053,368.961,338.669,368.301,338.393z"/>
		<path d="M401.123,348.455h5.545v1.115h-6.787v-6.084l-1.889,1.026v-0.828l1.889-1.026v-5.688h1.242v5.021l2.232-1.205v0.828
			l-2.232,1.205V348.455z"/>
		<path d="M444.619,349.57l-1.494-3.348h-6.982l-1.477,3.348h-1.332l5.67-12.582h1.295l5.67,12.582H444.619z M436.627,345.107h6.014
			l-3.025-6.805L436.627,345.107z"/>
		<path d="M488.242,336.971h1.314l-4.266,12.6h-1.297l-3.545-11.033l-3.582,11.033h-1.279l-4.248-12.6h1.35l3.582,11.286
			l3.564-11.286h1.26l3.582,11.286L488.242,336.971z"/>
	</g>
</g>
<g>
	<path fill-rule="evenodd" clip-rule="evenodd" fill="#006B2D" d="M142.286,340.359c-0.964,0.493-1.856,0.959-2.757,1.411
		c-1.866,0.939-3.494,2.244-5.204,3.42c-0.171,0.119-0.323,0.332-0.388,0.531c-0.471,1.456-0.892,2.929-1.379,4.379
		c-0.219,0.649-0.563,1.257-0.834,1.891c-0.297,0.698-0.557,1.414-0.869,2.104c-0.145,0.319-0.377,0.599-0.674,1.057
		c-0.5-1.691-0.82-3.236-1.58-4.62c-0.198,1.189-0.028,2.327,0.162,3.484c0.205,1.24,0.324,2.498-0.197,3.743
		c-0.359,0.855-0.967,1.251-1.809,1.309c-0.869,0.059-1.746,0.042-2.616-0.002c-0.314-0.016-0.655-0.149-0.928-0.32
		c-1.19-0.756-1.988-1.724-1.837-3.273c0.087-0.897-0.004-1.812,0.031-2.716c0.025-0.696,0.121-1.39,0.181-2.085
		c0.009-0.097-0.021-0.197-0.04-0.339c-0.836,0.43-1.635,0.876-2.464,1.255c-0.942,0.431-1.866,0.446-2.608-0.249
		c-0.443-1.402,0.18-2.49,0.7-3.607c0.574-1.237,1.115-2.49,1.681-3.732c0.096-0.21,0.235-0.403,0.358-0.602
		c0.588-0.954,1.175-1.91,1.769-2.861c0.213-0.338,0.429-0.674,0.672-0.99c0.59-0.766,0.771-1.671,0.899-2.59
		c0.161-1.154,0.382-2.308,0.173-3.644c-0.807,1.512-1.499,2.943-2.316,4.3c-0.809,1.343-1.744,2.608-2.699,4.02
		c-0.076-0.269-0.15-0.384-0.119-0.446c0.525-1.071,1.083-2.126,1.592-3.205c0.307-0.65,0.541-1.338,0.811-2.007
		c0.212-0.525,0.402-1.063,0.648-1.57c0.75-1.552,1.559-3.073,2.274-4.64c0.696-1.524,1.285-3.1,1.964-4.634
		c0.8-1.806,1.622-3.601,2.479-5.38c0.677-1.402,1.445-2.761,2.127-4.16c0.9-1.849,1.736-3.729,2.644-5.574
		c0.509-1.035,1.113-2.022,1.661-3.039c0.452-0.84,0.858-1.704,1.33-2.531c0.722-1.265,1.478-2.509,2.225-3.756
		c1.024-1.705,2.022-3.428,3.09-5.104c0.89-1.399,1.84-2.76,2.804-4.108c0.655-0.917,1.421-1.758,2.066-2.681
		c1.373-1.967,2.849-3.837,4.592-5.493c0.528-0.503,0.953-1.118,1.472-1.634c0.567-0.564,1.171-1.096,1.795-1.598
		c1.004-0.81,2.006-1.632,3.07-2.358c1.437-0.983,2.797-2.101,4.475-2.695c0.364-0.129,0.668-0.42,1.021-0.59
		c1.203-0.579,2.551-0.771,3.76-1.262c1.447-0.588,2.88-0.487,4.338-0.521c0.66-0.016,1.321-0.003,2.008-0.137
		c-0.584-0.352-1.188-0.676-1.751-1.059c-1.526-1.04-2.884-2.254-3.887-3.829c-0.902-1.412-1.647-2.925-2.021-4.533
		c-0.521-2.236-0.853-4.523-0.171-6.822c0.301-1.014,0.393-2.104,0.79-3.071c0.5-1.22,1.216-2.351,1.842-3.519
		c0.118-0.219,0.253-0.43,0.476-0.805c-1.445,0.605-2.38,1.591-3.456,2.567c-0.341-1.042,0.719-1.471,0.671-2.359
		c-1.976,1.666-3.116,3.854-4.377,5.967c-0.089-1.938,1.012-3.457,1.741-5.142c-0.546,0.27-0.559,0.262-1.403,1.553
		c-0.397,0.61-0.734,1.26-1.098,1.892c-0.359,0.621-0.424,1.398-1.14,1.88c0.073-0.502,0.085-1.021,0.231-1.502
		c0.53-1.745,1.067-3.502,2.013-5.069c0.666-1.105,1.528-2.093,2.279-3.148c0.729-1.024,1.753-1.773,2.811-2.287
		c1.353-0.657,2.438-1.659,3.725-2.373c0.06-0.032,0.116-0.075,0.179-0.092c0.893-0.248,1.775-0.557,2.684-0.721
		c0.847-0.153,1.721-0.21,2.583-0.205c1.031,0.007,2.069,0.07,3.09,0.215c0.545,0.077,1.073,0.348,1.585,0.584
		c1.309,0.604,2.651,1.07,3.758,2.139c0.941,0.91,1.84,1.833,2.57,2.905c0.385,0.565,0.64,1.221,0.925,1.851
		c0.345,0.764,0.724,1.501,1.395,2.037c0.286,0.229,0.603,0.422,0.877,0.663c0.661,0.579,1.493,0.842,2.262,1.206
		c1.768,0.839,3.546,1.669,5.372,2.369c1.544,0.592,3.061,1.241,4.573,1.905c0.485,0.213,0.967,0.432,1.445,0.657
		c1.278,0.602,2.56,1.198,3.831,1.817c0.412,0.201,0.795,0.466,1.191,0.702c1.305,0.777,2.62,1.542,3.917,2.336
		c1.153,0.705,2.286,1.443,3.43,2.166c0.418,0.263,0.823,0.552,1.26,0.777c1.079,0.56,1.986,1.342,2.876,2.151
		c0.255,0.231,0.532,0.44,0.814,0.674c-0.322,0.354-0.631,0.285-0.908,0.217c-0.934-0.231-1.867-0.474-2.793-0.738
		c-0.986-0.283-1.962-0.609-2.949-0.896c-0.918-0.265-1.859-0.462-2.766-0.759c-0.904-0.295-1.777-0.685-2.669-1.021
		c-0.643-0.244-1.292-0.474-1.941-0.703c-0.968-0.345-1.924-0.719-2.878-1.093c-0.881-0.346-1.8-0.639-2.752-0.848
		c-1.214-0.266-2.469-0.483-3.623-1.046c-1.305-0.637-2.639-1.24-4.011-1.698c-0.873-0.292-1.659-0.884-2.646-0.838
		c-0.184,0.009-0.373-0.132-0.563-0.196c-1.301-0.444-2.6-0.785-4.002-0.427c-0.637,0.163-1.318,0.153-1.98,0.213
		c-1.656,0.146-3.313,0.293-4.973,0.43c-0.231,0.019-0.502,0.052-0.696-0.042c-0.811-0.391-1.583-0.008-2.361,0.084
		c-0.429,0.051-0.649,0.628-0.513,1.134c0.338,1.251,0.839,2.431,1.582,3.499c0.703,1.009,1.396,2.025,2.123,3.017
		c1.026,1.398,2.147,2.706,3.517,3.797c1.411,1.124,2.767,2.322,4.169,3.459c0.588,0.476,1.246,0.862,1.854,1.313
		c2.201,1.639,4.313,3.396,6.119,5.461c0.813,0.93,1.418,2.06,2.021,3.152c0.445,0.806,0.773,1.683,1.081,2.556
		c0.174,0.492,0.221,1.033,0.293,1.556c0.194,1.415,0.531,2.805,0.527,4.256c-0.004,1.121,0.255,2.241,0.337,3.365
		c0.097,1.335,0.095,2.67-0.174,3.995c-0.236,1.171-0.333,2.372-0.794,3.491c-0.212,0.514-0.432,1.023-0.737,1.516
		c0.205-1.443,0.176-2.836-0.411-4.184c0.06,1.554-0.428,3.026-0.591,4.532c-0.132,1.209-0.529,2.334-0.715,3.517
		c-0.101,0.648-0.309,1.311-0.615,1.891c-0.561,1.056-0.599,2.345-1.476,3.256c-0.11,0.115-0.207,0.29-0.219,0.445
		c-0.085,1.188-0.733,2.185-1.108,3.271c-0.43,1.251-0.999,2.454-1.516,3.675c-0.02,0.047-0.108,0.064-0.272,0.156
		c0.365-2.258,1.239-4.384,0.89-6.845c-0.218,0.343-0.386,0.54-0.477,0.767c-0.68,1.692-1.406,3.367-2.339,4.937
		c-0.808,1.356-1.652,2.692-2.539,3.997c-0.555,0.817-1.206,1.572-1.838,2.334c-0.158,0.193-0.409,0.309-0.784,0.58
		c0.176-0.958,0.315-1.721,0.455-2.483c-1.401,1.669-2.756,3.317-4.75,4.65c0.201-0.501,0.281-0.857,0.472-1.142
		c0.905-1.349,1.563-2.824,2.312-4.259c0.653-1.252,0.947-2.628,1.576-3.878c0.125-0.249,0.112-0.568,0.069-0.897
		c-1.997,3.314-4.077,6.545-6.737,9.376c0.312-1.455,1.113-2.722,1.591-4.111c0.485-1.412,0.988-2.819,1.311-4.276
		c0.319-1.45,0.849-2.864,0.841-4.391c-1.709,3.932-3.721,7.675-6.332,11.074c-0.011,0.016-0.111-0.038-0.222-0.079
		c0.372-0.909,0.743-1.818,1.138-2.781c-0.403-0.104-0.552,0.22-0.735,0.403c-1.52,1.512-2.983,3.08-4.551,4.539
		c-1.087,1.009-2.298,1.89-3.482,2.787C165.122,330.387,145.807,340.387,142.286,340.359z"/>
	<g>
		<path fill="#010202" d="M104.326,297.89c-0.264,4.341,5.261,16.44,8.287,19.664c1.977,2.106,4.594,7.128,6.155,10.983
			c0.087-0.185,0.183-0.363,0.268-0.549c0.356-0.781,0.683-1.578,1.011-2.375c0.304-0.74,0.608-1.48,0.932-2.212
			c0.879-1.987,1.709-3.788,2.537-5.505c0.37-0.768,0.763-1.519,1.157-2.271c0.332-0.632,0.665-1.264,0.977-1.905
			c0.42-0.861,0.824-1.729,1.229-2.596c0.468-1.001,0.936-2.002,1.422-2.993c0.355-0.722,0.75-1.425,1.147-2.127
			c0.198-0.351,0.396-0.701,0.588-1.056c0.166-0.31,0.328-0.626,0.489-0.944c0.288-0.563,0.577-1.125,0.891-1.676
			c0.612-1.074,1.251-2.135,1.887-3.195l1.196-2.001c0.767-1.288,1.533-2.577,2.337-3.841c0.985-1.549,2.035-3.041,2.932-4.298
			c0.362-0.506,0.751-0.994,1.142-1.479c0.309-0.384,0.62-0.767,0.901-1.169c1.429-2.043,2.774-3.7,4.16-5.142
			c-5.558-2.145-5.533-12.718-9.04-20.699c-3.482-7.929-7.643-10.649-10.951-13.145c-3.309-2.493-4.537-3.601-6.066-4.833
			c-1.528-1.234-5.327-3.946-5.968-3.897c-0.643,0.05-0.643,1.331-0.986,1.529c-0.345,0.198-1.53-1.382-2.122-1.874
			c-0.593-0.493-1.677-1.282-2.022-0.493c-0.345,0.789,2.367,6.905,1.974,7.646c-0.396,0.74-0.888,0.74-3.65,1.528
			c-2.763,0.79-6.808,5.229-7.893,6.66c-1.084,1.431-2.072,6.018-2.664,7.004c-0.59,0.986-1.924,2.417-2.466,2.96
			c-0.542,0.542-0.986,1.528-1.035,2.564c-0.05,1.036,0.493,1.775,0.937,2.12c0.443,0.347,0.05,1.234,0.494,2.022
			c0.443,0.79,1.084,1.234,1.48,1.53c0.393,0.295-0.249,0.986,1.133,2.565c1.381,1.577,7.531,1.857,9.174,3.568
			c1.646,1.709,1.316,5.92,1.251,8.221C107.481,288.482,104.588,293.548,104.326,297.89z"/>
	</g>
</g>
</svg>
